<?xml version="1.0" encoding="UTF-8"?>
<svg id="Capa_1" data-name="Capa 1" xmlns="http://www.w3.org/2000/svg" viewBox="0 0 462.03 444.62">
  <path fill="currentColor" d="M233.7,270.49h0c14.11,0,28.29,5.92,37.92,15.82,6.01,6.18,13.08,16.81,12.64,32.35l-.02.85c-.85,24.97-22.72,45.4-48.99,45.55-.38.01-.75.02-1.12.02-5.76,0-11.21-1.42-17.53-3.06l-2.95-.76-.33-.08c-4.18-.9-8.5-1.35-12.83-1.35-8.63,0-17.32,1.83-25.04,5.26-11.06,4.75-21.02,13.39-27.97,24.24-9.19,13.89-25.53,22.52-42.65,22.52h-.54c-34.54-1.53-49.95-25-49.91-47.58.04-22.36,15.34-45.54,49.41-47.05,5.41.18,11.04,1.29,17,2.47,7.02,1.39,14.27,2.82,21.8,2.82s14.32-1.47,20.58-4.5c13.37-4.55,21.49-14.84,28.66-23.93,3.48-4.41,6.77-8.58,10.34-11.83,8.71-7.7,19.61-11.78,31.53-11.78M233.69,261.48c-13.22,0-26.55,4.35-37.49,14.04-12.28,11.18-19.47,28.68-36.45,34.15-5.68,2.85-11.4,3.84-17.16,3.84-12.87,0-25.9-4.96-38.86-5.3-77.87,3.15-77.8,109.19.16,112.63.31,0,.62,0,.94,0,19.84,0,39.18-9.96,50.16-26.56,5.81-9.06,14.17-16.71,24.02-20.93,6.73-2.99,14.1-4.53,21.49-4.53,3.67,0,7.34.38,10.94,1.15,7.93,2.02,14.82,4.09,22.7,4.09.47,0,.93,0,1.4-.02,31.02-.17,56.69-24.39,57.7-54.24l.02-.93c.97-34.21-29.03-57.41-59.56-57.4h0Z"/>
  <path fill="currentColor" d="M73.48,69.89h0c12.84,0,25.52,5.59,36.49,15.98,12.31,12.35,17.67,30.31,14.02,46.76-3,12.66-2.3,25.83,1.93,36.99,4.45,12.18,12.81,22.85,23.53,30.06l.29.18,2.61,1.6c5.89,3.6,10.97,6.71,15.29,11.47,17.98,18.83,18.48,48.75,1.15,66.67l-.65.67c-10.81,11.04-23.3,13.37-31.88,13.37-23.69,0-50.04-18.02-51.31-47.01-.15-4.96.57-10.22,1.32-15.79,1.55-11.47,3.31-24.46-2.7-37.24-5.13-15.58-17.4-24.11-28.24-31.64-4.99-3.47-9.71-6.75-13.59-10.51-14.68-16.62-18.62-36.12-10.81-53.55,7.51-16.75,24.61-28,42.54-28.01M73.47,60.88c-43.4,0-77.42,52.79-38.25,96.77,13.39,13.16,33.85,19.69,39.97,39.28,7.86,16.02.28,33.34.76,49.95,1.44,32.98,30.86,55.75,60.31,55.75,13.7,0,27.42-4.94,38.31-16.07l.65-.67c20.77-21.46,20.35-56.74-1.08-79.18-5.7-6.29-12.31-9.96-19.67-14.51-9.22-6.2-16.32-15.33-20.1-25.68-3.8-10.01-4.11-21.35-1.63-31.82,4.38-19.74-2.17-40.92-16.4-55.2-13.84-13.12-28.85-18.63-42.88-18.63h0Z"/>
  <path fill="currentColor" d="M310.15,153.94c24.68,0,45.42,20.09,47.24,45.97.59,6.16-.53,12.01-1.82,18.78l-.57,3.03-.06.33c-1.89,12.79.38,26.15,6.34,37.54,5.45,10.74,14.72,20.12,25.99,26.35,14.74,8.44,24.42,24.49,25.26,41.65.33,16.06-4.47,29.61-13.87,39.2-8.57,8.74-20.76,13.76-33.43,13.76-19.42,0-43.37-12.15-47.1-46.38-.17-5.41.58-11.11,1.37-17.13,1.73-13.09,3.68-27.9-4.39-42.18-5.4-13.05-16.19-20.49-25.73-27.06-4.62-3.19-9-6.2-12.47-9.55-13.64-13.54-17.62-34.63-10.15-53.73,7.22-18.45,22.6-29.86,41.18-30.53l.86-.03c.46-.01.91-.02,1.37-.02M310.15,144.94c-.54,0-1.09,0-1.64.02l-.93.04c-49.02,1.77-71.36,65.56-37.03,99.65,11.95,11.53,29.87,17.58,36.43,34.18,10.37,17.72,1.43,37.24,2.15,56,3.89,36.98,30.01,54.74,56.09,54.74,28.58,0,57.13-21.35,56.3-62.15-.98-20.14-12.24-39.24-29.79-49.28-9.41-5.21-17.58-13.07-22.43-22.62-5.11-9.77-7.09-21.15-5.46-32.15,1.59-8.51,3.32-15.87,2.51-24.32-2.13-30.38-27.05-54.12-56.2-54.11h0Z"/>
  <path fill="currentColor" d="M329.23,29.73h0c11.68,0,22.71,4.18,31.01,11.73l.69.64c13.67,12.57,17.95,31.24,11.45,49.95-6.73,19.37-23.46,32.81-42.5,34.24-.96.06-1.93.08-2.91.08-4.11,0-8.38-.45-12.91-.92-4.79-.5-9.75-1.01-14.8-1.01-8.71,0-15.83,1.55-22.34,4.87-15.41,5.61-23.55,18.14-30.75,29.21-3.31,5.09-6.44,9.91-10.09,13.91-11.04,10.38-23.54,15.86-36.19,15.86-17.82,0-34.84-11.25-42.35-27.99-7.92-17.66-3.89-37.42,10.89-54.02,9.75-10.34,23.43-16.27,37.53-16.27,3,0,6,.28,8.78.81,4.5.92,9.08,1.39,13.63,1.39,8.31,0,16.18-1.51,23.27-4.47,12.03-4.82,22.44-13.51,29.31-24.45l.18-.29,1.52-2.66c3.42-6,6.37-11.17,10.99-15.64,9.35-9.51,22.32-14.96,35.58-14.96M329.22,20.73c-15.14,0-30.46,5.93-41.99,17.65-6.11,5.89-9.57,12.61-13.89,20.12-5.91,9.41-14.81,16.78-25.04,20.89-6.26,2.6-13.08,3.82-19.92,3.82-3.98,0-7.95-.41-11.83-1.2-3.51-.67-7.05-.99-10.58-.99-16.47,0-32.69,7.02-44.08,19.1-39.27,44.1-5.34,97.19,38.01,97.19,13.93,0,28.85-5.49,42.61-18.53,12.74-13.8,18.63-34.45,38.02-41.18,6.04-3.2,12.33-4.14,18.74-4.14,9.17,0,18.56,1.93,27.71,1.93,1.15,0,2.3-.03,3.45-.1,48.24-3.61,72.71-66.61,36.6-99.81l-.68-.63c-10.39-9.44-23.69-14.12-37.12-14.12h0Z"/>
</svg>